<?xml version="1.0" encoding="UTF-8" standalone="no"?>
<svg
   width="16.014"
   height="16"
   version="1.1"
   id="svg14"
   sodipodi:docname="system-log-out-symbolic.svg"
   inkscape:version="1.1 (c68e22c387, 2021-05-23)"
   xmlns:inkscape="http://www.inkscape.org/namespaces/inkscape"
   xmlns:sodipodi="http://sodipodi.sourceforge.net/DTD/sodipodi-0.dtd"
   xmlns="http://www.w3.org/2000/svg"
   xmlns:svg="http://www.w3.org/2000/svg">
  <defs
     id="defs18" />
  <sodipodi:namedview
     id="namedview16"
     pagecolor="#ffffff"
     bordercolor="#666666"
     borderopacity="1.0"
     inkscape:pageshadow="2"
     inkscape:pageopacity="0.0"
     inkscape:pagecheckerboard="0"
     showgrid="false"
     inkscape:zoom="51.0625"
     inkscape:cx="5.0134639"
     inkscape:cy="8"
     inkscape:window-width="1920"
     inkscape:window-height="1009"
     inkscape:window-x="0"
     inkscape:window-y="0"
     inkscape:window-maximized="1"
     inkscape:current-layer="svg14" />
  <g
     color="#000000"
     fill="#2e3436"
     id="g12"
     style="fill:#ffffff">
    <path
       d="M 4,1 C 4,1 3.541,0.986 3.053,1.23 2.564,1.475 2,2.167 2,3 v 10 c 0,0.833 0.564,1.525 1.053,1.77 C 3.541,15.014 4,15 4,15 h 8 c 0.833,0 1.525,-0.564 1.77,-1.053 C 14.014,13.459 14,13 14,13 v -2 a 1,1 0 1 0 -2,0 v 2 H 4 V 3 h 8 v 2 a 1,1 0 1 0 2,0 V 3 C 14,2.167 13.436,1.475 12.947,1.23 12.46,0.986 12,1 12,1 Z"
       style="line-height:normal;font-variant-ligatures:normal;font-variant-position:normal;font-variant-caps:normal;font-variant-numeric:normal;font-variant-alternates:normal;font-feature-settings:normal;text-indent:0;text-align:start;text-decoration-line:none;text-decoration-style:solid;text-decoration-color:#000000;text-transform:none;text-orientation:mixed;shape-padding:0;isolation:auto;mix-blend-mode:normal;fill:#ffffff"
       font-weight="400"
       font-family="sans-serif"
       overflow="visible"
       fill-rule="evenodd"
       id="path2" />
    <path
       d="M 8.293,5.293 5.586,8 8.293,10.707 9.707,9.293 8.414,8 9.707,6.707 Z"
       style="line-height:normal;font-variant-ligatures:normal;font-variant-position:normal;font-variant-caps:normal;font-variant-numeric:normal;font-variant-alternates:normal;font-feature-settings:normal;text-indent:0;text-align:start;text-decoration-line:none;text-decoration-style:solid;text-decoration-color:#000000;text-transform:none;text-orientation:mixed;shape-padding:0;isolation:auto;mix-blend-mode:normal;marker:none;fill:#ffffff"
       font-weight="400"
       font-family="sans-serif"
       overflow="visible"
       id="path4" />
    <path
       d="m 9,10 h 1 v 1 H 9 Z M 9,5 h 1 V 6 H 9 Z"
       style="marker:none;fill:#ffffff"
       overflow="visible"
       id="path6" />
    <path
       d="M 9,5 C 9.554,5 10,5.446 10,6 10,6.554 9.554,7 9,7 8.446,7 8,6.554 8,6 8,5.446 8.446,5 9,5 Z m 0,4 c 0.554,0 1,0.446 1,1 0,0.554 -0.446,1 -1,1 C 8.446,11 8,10.554 8,10 8,9.446 8.446,9 9,9 Z"
       style="marker:none;fill:#ffffff"
       overflow="visible"
       id="path8" />
    <path
       d="m 8,7 a 1,1 0 1 0 0,2 h 7 a 1,1 0 1 0 0,-2 z"
       style="line-height:normal;font-variant-ligatures:normal;font-variant-position:normal;font-variant-caps:normal;font-variant-numeric:normal;font-variant-alternates:normal;font-feature-settings:normal;text-indent:0;text-align:start;text-decoration-line:none;text-decoration-style:solid;text-decoration-color:#000000;text-transform:none;text-orientation:mixed;shape-padding:0;isolation:auto;mix-blend-mode:normal;fill:#ffffff"
       font-weight="400"
       font-family="sans-serif"
       overflow="visible"
       fill-rule="evenodd"
       id="path10" />
  </g>
</svg>
