<?xml version="1.0" encoding="UTF-8" standalone="no"?>
<svg
   width="16"
   height="16"
   version="1.1"
   id="svg12"
   sodipodi:docname="preferences-other-symbolic.svg"
   inkscape:version="1.1.1 (3bf5ae0d25, 2021-09-20)"
   xmlns:inkscape="http://www.inkscape.org/namespaces/inkscape"
   xmlns:sodipodi="http://sodipodi.sourceforge.net/DTD/sodipodi-0.dtd"
   xmlns="http://www.w3.org/2000/svg"
   xmlns:svg="http://www.w3.org/2000/svg">
  <defs
     id="defs16" />
  <sodipodi:namedview
     id="namedview14"
     pagecolor="#ffffff"
     bordercolor="#666666"
     borderopacity="1.0"
     inkscape:pageshadow="2"
     inkscape:pageopacity="0.0"
     inkscape:pagecheckerboard="0"
     showgrid="false"
     inkscape:zoom="42.625"
     inkscape:cx="7.9882698"
     inkscape:cy="17.043988"
     inkscape:window-width="1920"
     inkscape:window-height="1009"
     inkscape:window-x="0"
     inkscape:window-y="0"
     inkscape:window-maximized="1"
     inkscape:current-layer="svg12" />
  <path
     d="m 7.9999296,0.01446301 c -0.2509756,0 -0.5019512,0.01254877 -0.7483636,0.03536474 L 6.788402,2.438659 A 5.7176801,5.7176801 0 0 0 5.6829686,2.794588 L 3.9364067,1.1210372 C 3.4926363,1.3834207 3.1070465,1.7074074 2.7237384,2.0473652 l 1.033563,2.1743612 A 5.769016,5.769016 0 0 0 3.0808082,5.1491953 L 0.69197692,4.828631 A 7.8829149,7.8829149 0 0 0 0.22881289,6.2888526 L 2.3313038,7.4296507 a 5.5054917,5.5054917 0 0 0 -0.034224,0.5703991 c 0,0.197358 0.01483,0.3787449 0.034224,0.570399 L 0.22881289,9.7112469 C 0.33947031,10.218902 0.48891486,10.706023 0.69197692,11.172609 L 3.0808082,10.852045 c 0.1939356,0.330831 0.4232361,0.642269 0.6764932,0.926328 l -1.033563,2.175502 c 0.3833081,0.339958 0.7688979,0.663945 1.2126683,0.926328 l 1.7465619,-1.675832 c 0.3490843,0.156289 0.723266,0.273791 1.1054334,0.35707 l 0.463164,2.388831 a 8.1202009,8.1202009 0 0 0 1.4967272,0 L 9.212598,13.561441 c 0.3810266,-0.08328 0.7563491,-0.200781 1.104293,-0.35707 l 1.747702,1.676973 c 0.44263,-0.262384 0.82936,-0.587511 1.211528,-0.927469 l -1.033563,-2.175502 a 5.8294783,5.8294783 0 0 0 0.677634,-0.926328 l 2.38769,0.320564 A 7.8829149,7.8829149 0 0 0 15.772187,9.7112469 L 13.668555,8.5704488 c 0.01939,-0.1916541 0.03537,-0.373041 0.03537,-0.570399 0,-0.1973581 -0.01597,-0.378745 -0.03537,-0.5703991 L 15.772187,6.2888526 A 7.8806333,7.8806333 0 0 0 15.307882,4.8274902 l -2.38769,0.3205643 A 5.769016,5.769016 0 0 0 12.242558,4.2205856 L 13.276121,2.0462244 C 12.893953,1.7062666 12.507223,1.3822799 12.064593,1.1198964 L 10.31575,2.794588 A 5.7211025,5.7211025 0 0 0 9.2114572,2.438659 L 8.7471524,0.04982775 A 8.1202009,8.1202009 0 0 0 7.9999296,0.01446301 Z m 0,4.56319239 a 3.4223943,3.4223943 0 1 1 0,6.8447886 3.4223943,3.4223943 0 0 1 0,-6.8447886 z"
     style="fill:#ffffff;stroke-width:1.1408;marker:none"
     color="#000000"
     overflow="visible"
     fill="#474747"
     id="path10" />
</svg>
