<?xml version="1.0" encoding="UTF-8" standalone="no"?>
<svg
   width="128"
   height="128"
   version="1.0"
   id="svg13"
   sodipodi:docname="fallback-icon-5.svg"
   inkscape:version="1.3.2 (091e20ef0f, 2023-11-25)"
   xmlns:inkscape="http://www.inkscape.org/namespaces/inkscape"
   xmlns:sodipodi="http://sodipodi.sourceforge.net/DTD/sodipodi-0.dtd"
   xmlns="http://www.w3.org/2000/svg"
   xmlns:svg="http://www.w3.org/2000/svg">
  <sodipodi:namedview
     id="namedview13"
     pagecolor="#ffffff"
     bordercolor="#000000"
     borderopacity="0.25"
     inkscape:showpageshadow="2"
     inkscape:pageopacity="0.0"
     inkscape:pagecheckerboard="0"
     inkscape:deskcolor="#d1d1d1"
     inkscape:zoom="4"
     inkscape:cx="30"
     inkscape:cy="61.500001"
     inkscape:window-width="1920"
     inkscape:window-height="1018"
     inkscape:window-x="0"
     inkscape:window-y="0"
     inkscape:window-maximized="1"
     inkscape:current-layer="svg13" />
  <defs
     id="defs6">
    <linearGradient
       id="linearGradient26"
       x1="43.844"
       x2="-60"
       y1="234"
       y2="234"
       gradientTransform="matrix(1.0015 0 0 .99993 72.09 -115.985)"
       gradientUnits="userSpaceOnUse">
      <stop
         offset="0"
         stop-color="#d5d3cf"
         id="stop21"
         style="stop-color:#537fb6;stop-opacity:1;" />
      <stop
         offset="0.038"
         stop-color="#e3e2df"
         id="stop22"
         style="stop-color:#6ea6e9;stop-opacity:1;" />
      <stop
         offset="0.077"
         stop-color="#c0bfbc"
         id="stop23"
         style="stop-color:#537fb6;stop-opacity:1;" />
      <stop
         offset="0.92299998"
         stop-color="#c0bfbc"
         id="stop24"
         style="stop-color:#78b653;stop-opacity:1;" />
      <stop
         offset="0.96200001"
         stop-color="#e3e2df"
         id="stop25"
         style="stop-color:#4d6a97;stop-opacity:1;" />
      <stop
         offset="1"
         stop-color="#d5d3cf"
         id="stop26"
         style="stop-color:#537fb6;stop-opacity:1;" />
    </linearGradient>
    <linearGradient
       id="e"
       x1="43.844"
       x2="-60"
       y1="234"
       y2="234"
       gradientTransform="matrix(1.0015 0 0 .99993 72.09 -115.985)"
       gradientUnits="userSpaceOnUse">
      <stop
         offset="0"
         stop-color="#d5d3cf"
         id="stop1" />
      <stop
         offset=".038"
         stop-color="#e3e2df"
         id="stop2" />
      <stop
         offset=".077"
         stop-color="#c0bfbc"
         id="stop3" />
      <stop
         offset=".923"
         stop-color="#c0bfbc"
         id="stop4" />
      <stop
         offset=".962"
         stop-color="#e3e2df"
         id="stop5" />
      <stop
         offset="1"
         stop-color="#d5d3cf"
         id="stop6" />
    </linearGradient>
  </defs>
  <rect
     width="111.28388"
     height="51.361786"
     x="8.3620119"
     y="69.580498"
     rx="8.560298"
     ry="8.560298"
     style="fill:#4a2e65;fill-opacity:1;stroke-width:1.07004"
     id="rect21" />
  <path
     d="m 16.918227,7.5215914 c -4.742405,0 -8.5602979,3.6678476 -8.5602979,8.2238736 v 86.350675 c 0,4.55603 3.8178929,8.22388 8.5602979,8.22388 H 111.0815 c 4.74241,0 8.5603,-3.66785 8.5603,-8.22388 V 15.745465 c 0,-4.556026 -3.81789,-8.2238736 -8.5603,-8.2238736 z"
     style="fill:#804da0;fill-opacity:1;stroke-width:1.0488"
     id="path6" />
  <path
     d="m 29.460542,24.681396 c -3.001896,0 -5.418584,1.895021 -5.418584,4.248929 v 44.613749 c 0,2.353905 2.416688,4.248927 5.418584,4.248927 H 89.06498 c 3.001892,0 5.418579,-1.895022 5.418579,-4.248927 V 28.930325 c 0,-2.353908 -2.416687,-4.248929 -5.418579,-4.248929 z"
     style="fill:#f6f5f4;fill-opacity:1;stroke-width:0.599781"
     id="path14" />
  <g
     transform="matrix(0.75078978,0,0,0.94117647,9.4752139,-176.23019)"
     id="g12">
    <rect
       width="60"
       height="6"
       x="32.225842"
       y="226.88828"
       style="fill:#c0bfbc;fill-opacity:1"
       id="rect10" />
    <rect
       width="70"
       height="6"
       x="32.225842"
       y="238.88828"
       style="fill:#c0bfbc;fill-opacity:1"
       id="rect11" />
    <rect
       width="70"
       height="6"
       x="32.225842"
       y="250.88828"
       style="fill:#c0bfbc;fill-opacity:1"
       id="rect12" />
  </g>
  <path
     d="m 41.53293,43.164604 c -3.001896,0 -5.418584,1.895021 -5.418584,4.248929 v 44.613749 c 0,2.353905 2.416688,4.248927 5.418584,4.248927 h 59.60444 c 3.00189,0 5.41858,-1.895022 5.41858,-4.248927 V 47.413533 c 0,-2.353908 -2.41669,-4.248929 -5.41858,-4.248929 z"
     style="fill:#f6f5f4;fill-opacity:1;stroke-width:0.599781"
     id="path1" />
  <g
     transform="matrix(0.75078978,0,0,0.94117647,21.547602,-157.74699)"
     id="g3">
    <rect
       width="60"
       height="6"
       x="32.225842"
       y="226.88828"
       style="fill:#c0bfbc;fill-opacity:1"
       id="rect1" />
    <rect
       width="70"
       height="6"
       x="32.225842"
       y="238.88828"
       style="fill:#c0bfbc;fill-opacity:1"
       id="rect2" />
    <rect
       width="70"
       height="6"
       x="32.225842"
       y="250.88828"
       style="fill:#c0bfbc;fill-opacity:1"
       id="rect3" />
  </g>
</svg>
